Coordinates
version=1
nRows=24
nColumns=24
inDegrees=yes

Units are S.I. units (second, meters, Newtons, ...)
Angles are in degrees.

endheader
time	pelvis_tilt	pelvis_list	pelvis_rotation	pelvis_tx	pelvis_ty	pelvis_tz	hip_flexion_r	hip_adduction_r	hip_rotation_r	knee_angle_r	ankle_angle_r	subtalar_angle_r	mtp_angle_r	hip_flexion_l	hip_adduction_l	hip_rotation_l	knee_angle_l	ankle_angle_l	subtalar_angle_l	mtp_angle_l	lumbar_extension	lumbar_bending	lumbar_rotation
      0.45800000	     -8.22597387	      0.16280638	     -0.46652630	     -0.76687892	      1.02911758	      0.30146215	     36.92463155	      0.47604804	     -4.18553355	    -19.43662302	      6.86081917	     -0.82996110	      7.92776831	     -5.03654498	      0.14758622	     -1.06778323	    -12.53785845	     23.89015736	      8.57364375	      3.21584385	     -3.68170256	     -0.33213390	     -2.21835589
      0.46216667	     -8.17113516	      0.19664514	     -0.39078791	     -0.76079553	      1.02792745	      0.30169192	     36.85336137	      0.47483594	     -3.90371433	    -19.38719645	      6.74828990	     -1.11607926	      7.91713417	     -5.24146953	      0.14613396	     -1.13714692	    -13.01308949	     24.02954010	      8.75521198	      3.25274839	     -3.71979732	     -0.32876785	     -2.25225649
      0.46633333	     -8.15618081	      0.23264948	     -0.31698118	     -0.75466592	      1.02667466	      0.30194229	     36.83628319	      0.47326382	     -3.63496042	    -19.45439011	      6.63745718	     -1.40046621	      7.90299396	     -5.35865366	      0.13361762	     -1.29522347	    -13.58758107	     24.20246811	      9.05562470	      3.33307599	     -3.69913825	     -0.32353781	     -2.27640983
      0.47050000	     -8.06194944	      0.24537548	     -0.24402333	     -0.74850486	      1.02560483	      0.30219165	     36.72753756	      0.49360524	     -3.39263659	    -19.59490949	      6.53332415	     -1.68888208	      7.88846866	     -5.55515400	      0.09317233	     -1.44210642	    -14.18125610	     24.33323193	      9.35519931	      3.43612289	     -3.78313157	     -0.28765012	     -2.30294629
      0.47466667	     -8.00448430	      0.25845213	     -0.17367230	     -0.74229691	      1.02449397	      0.30245666	     36.66510803	      0.51799557	     -3.15398046	    -19.83288578	      6.40971988	     -2.02240061	      7.87004292	     -5.68152156	      0.04337229	     -1.63689114	    -14.84150229	     24.46377412	      9.71390442	      3.59301374	     -3.80541998	     -0.24512408	     -2.32163228
      0.47883333	     -7.93164105	      0.27709380	     -0.10721037	     -0.73607855	      1.02343524	      0.30273425	     36.59456721	      0.54023587	     -2.92041181	    -20.16231750	      6.29841906	     -2.33481864	      7.85343910	     -5.80732819	     -0.00180662	     -1.79687478	    -15.54532999	     24.55094244	     10.05220133	      3.76362661	     -3.86291729	     -0.19968199	     -2.34104627
      0.48300000	     -7.83567312	      0.27184979	     -0.04338201	     -0.72981545	      1.02245761	      0.30303287	     36.49370181	      0.58818176	     -2.71614241	    -20.54948084	      6.15744730	     -2.69665864	      7.83304854	     -5.92408428	     -0.08769114	     -2.03561555	    -16.32231961	     24.62695202	     10.45570102	      3.99930990	     -3.91943274	     -0.13450938	     -2.35266407
      0.48716667	     -7.74839527	      0.27220695	      0.01677668	     -0.72352844	      1.02150203	      0.30335471	     36.40737116	      0.63434090	     -2.51886064	    -21.01147319	      6.01819894	     -3.06017168	      7.81147184	     -6.00141237	     -0.17504073	     -2.28319509	    -17.16067246	     24.66870200	     10.86741253	      4.28566915	     -3.96596320	     -0.07551354	     -2.36425466
      0.49133333	     -7.64184773	      0.26388021	      0.06869725	     -0.71722846	      1.02061554	      0.30370134	     36.30399847	      0.69583400	     -2.32802130	    -21.53413044	      5.87224821	     -3.43113849	      7.78775015	     -6.07992680	     -0.27849531	     -2.54015507	    -18.04426016	     24.67211857	     11.29564378	      4.61441162	     -4.04207728	     -0.00005992	     -2.36284864
      0.49550000	     -7.53849406	      0.24571857	      0.12505028	     -0.71091743	      1.01976290	      0.30405713	     36.20615975	      0.76387875	     -2.16509749	    -22.11005776	      5.72346208	     -3.80461309	      7.75602709	     -6.11037603	     -0.40654339	     -2.82769917	    -19.01769510	     24.65105458	     11.76170464	      5.05668645	     -4.10485952	      0.08977215	     -2.35135749
      0.49966667	     -7.43162546	      0.23898045	      0.16305565	     -0.70460584	      1.01895854	      0.30446515	     36.11414453	      0.83547263	     -1.98073259	    -22.74421842	      5.58442355	     -4.17554478	      7.72360956	     -6.12451033	     -0.52511806	     -3.10601419	    -20.03087645	     24.55442060	     12.17905926	      5.47571460	     -4.17710566	      0.16374133	     -2.34118558
      0.50383333	     -7.31985554	      0.22297387	      0.19569216	     -0.69829045	      1.01820671	      0.30490082	     36.01856827	      0.91901882	     -1.81468679	    -23.41531390	      5.45288807	     -4.54237982	      7.68598196	     -6.10519871	     -0.66599633	     -3.41017956	    -21.11967330	     24.42479111	     12.63299458	      5.93864012	     -4.25421185	      0.25241915	     -2.31686398
      0.50800000	     -7.16918325	      0.20946209	      0.23878482	     -0.69198931	      1.01756631	      0.30530767	     35.89360887	      0.98458508	     -1.71248671	    -24.14665629	      5.42432072	     -4.78051500	      7.30862179	     -6.10474160	     -0.80803033	     -3.67027492	    -22.23628129	     24.12401405	     12.98757436	     10.49262975	     -4.38808282	      0.33844769	     -2.26351800
      0.51216667	     -7.08062586	      0.18975925	      0.26224483	     -0.68568490	      1.01687724	      0.30579750	     35.82687459	      1.08268422	     -1.53867428	    -24.87623168	      5.29051150	     -5.20268254	      7.29091768	     -5.99378060	     -0.96724545	     -3.95952308	    -23.44876408	     23.88445976	     13.37808597	     10.58242879	     -4.42541275	      0.43564862	     -2.24629533
      0.51633333	     -6.97002229	      0.16556432	      0.28206322	     -0.67939755	      1.01627347	      0.30630021	     35.74219808	      1.18197739	     -1.39950437	    -25.63926722	      5.24503640	     -5.52194135	      7.26504008	     -5.86575933	     -1.14639917	     -4.27965742	    -24.73671249	     23.58668498	     13.82373997	     10.73752664	     -4.50000555	      0.53184715	     -2.20329931
      0.52050000	     -6.85900305	      0.13672043	      0.29605754	     -0.67313169	      1.01571932	      0.30683393	     35.65715137	      1.28996009	     -1.26481387	    -26.41668351	      5.23652931	     -5.82506654	      7.22821029	     -5.70369001	     -1.34095175	     -4.60092044	    -26.08500344	     23.21526647	     14.24185596	     10.95167195	     -4.57713462	      0.63408329	     -2.15276958
      0.52466667	     -6.74070220	      0.09991341	      0.31306995	     -0.66688389	      1.01525025	      0.30736895	     35.55611597	      1.40557195	     -1.13581685	    -27.19302410	      5.27708766	     -6.13689175	      6.64940027	     -5.51717480	     -1.54815746	     -4.88085831	    -27.47278644	     22.69855765	     14.57131561	     14.20966467	     -4.66706273	      0.75369633	     -2.07121625
      0.52883333	     -6.63232445	      0.07143993	      0.30977759	     -0.66066012	      1.01479875	      0.30794242	     35.47175889	      1.51861732	     -1.01799104	    -27.98828430	      5.38208686	     -6.33002077	      6.63787852	     -5.28535294	     -1.75663954	     -5.19282973	    -28.92989317	     22.18309880	     14.93266910	     14.27181443	     -4.74043701	      0.85929532	     -2.02998275
      0.53300000	     -6.53388000	      0.02645984	      0.31118850	     -0.65445709	      1.01440780	      0.30852061	     35.38057908	      1.64798967	     -0.90428099	    -28.75714089	      5.50614231	     -6.56249289	      6.61014468	     -5.00287058	     -1.99328703	     -5.49032372	    -30.44695583	     21.59516578	     15.27091845	     14.39313550	     -4.80688243	      0.98883183	     -1.96186055
      0.53716667	     -6.41323890	     -0.04619444	      0.32451703	     -0.64828778	      1.01412939	      0.30907954	     35.23962787	      1.79715744	     -0.81427701	    -29.47956263	      5.66564524	     -6.80463089	      6.52211809	     -4.70560643	     -2.26843459	     -5.75476093	    -32.02527713	     20.95060267	     15.57607632	     14.74081851	     -4.90840702	      1.14967416	     -1.86985096
      0.54133333	     -6.30583517	     -0.10259106	      0.32363087	     -0.64215466	      1.01387603	      0.30965672	     35.11127921	      1.93324951	     -0.72921134	    -30.20205080	      5.89781282	     -6.96916606	      6.38898254	     -4.36280974	     -2.53022477	     -6.01684777	    -33.63858580	     20.22377995	     15.83310586	     15.23733418	     -4.99137374	      1.28581602	     -1.78410248
      0.54550000	     -6.18227129	     -0.17216236	      0.27572811	     -0.63603979	      1.01371832	      0.31030388	     34.94629939	      2.11157791	     -0.59753273	    -30.88320648	      6.11125042	     -7.15504062	      5.84507990	     -4.02786526	     -2.81037000	     -6.32219123	    -35.25903607	     19.38800837	     16.02016025	     17.03514541	     -5.10335321	      1.46822706	     -1.67728727
      0.54966667	     -6.12942707	     -0.18872219	      0.27508130	     -0.62999249	      1.01351171	      0.31083732	     34.85733782	      2.19414262	     -0.54236169	    -31.57447024	      6.49024360	     -7.16082720	      5.82916423	     -3.56926600	     -3.01225200	     -6.46813514	    -36.92442954	     18.50945365	     16.04591715	     17.10165904	     -5.12147663	      1.55556704	     -1.63362837
      0.55383333	     -6.01244312	     -0.23553519	      0.26505715	     -0.62397651	      1.01349522	      0.31135943	     34.66771202	      2.30736747	     -0.50503949	    -32.20128448	      6.83928912	     -7.25902253	      5.82163019	     -3.16209570	     -3.24960855	     -6.61868455	    -38.60075081	     17.59519175	     16.01484677	     17.12827254	     -5.22500579	      1.69647012	     -1.56988924
